<svg width="25" height="25" viewBox="0 0 25 25" fill="none" xmlns="http://www.w3.org/2000/svg">
<path d="M24.2188 10.1562C24.2186 9.55739 24.0464 8.9712 23.7226 8.46742C23.3989 7.96365 22.9372 7.56351 22.3925 7.31463C21.8478 7.06575 21.2431 6.97861 20.6503 7.06358C20.0575 7.14855 19.5017 7.40206 19.0488 7.79393C17.4131 6.92479 15.459 6.3994 13.418 6.27733L13.9248 3.23338L15.6553 3.49901C15.7431 4.04487 16.021 4.54213 16.44 4.90289C16.8589 5.26365 17.392 5.46468 17.9448 5.47045C18.4977 5.47623 19.0348 5.28637 19.4612 4.93444C19.8876 4.58251 20.1758 4.09117 20.275 3.54725C20.3742 3.00334 20.2779 2.44187 20.0031 1.9621C19.7284 1.48232 19.2929 1.11512 18.7735 0.925393C18.2542 0.735671 17.6846 0.735643 17.1652 0.925314C16.6459 1.11499 16.2104 1.48214 15.9355 1.9619L13.3965 1.57127C13.1934 1.53995 12.9861 1.58994 12.8195 1.7104C12.653 1.83087 12.5407 2.0121 12.5068 2.21483L11.8359 6.26561C9.70313 6.3574 7.6543 6.88865 5.95117 7.79393C5.3292 7.26851 4.52673 7.00658 3.71456 7.06389C2.90238 7.1212 2.14464 7.49323 1.60262 8.10079C1.0606 8.70835 0.777109 9.50346 0.812477 10.3169C0.847846 11.1303 1.19929 11.8978 1.79199 12.456C1.64009 12.978 1.56283 13.5189 1.5625 14.0625C1.5625 16.2041 2.73438 18.1982 4.87403 19.6767C6.92188 21.0937 9.62988 21.875 12.5 21.875C15.3701 21.875 18.0781 21.0937 20.126 19.6767C22.2656 18.1982 23.4375 16.2041 23.4375 14.0625C23.4372 13.5189 23.3599 12.978 23.208 12.456C23.5257 12.1629 23.7794 11.8073 23.9533 11.4116C24.1273 11.0159 24.2176 10.5885 24.2188 10.1562ZM17.9688 2.34373C18.1233 2.34373 18.2743 2.38955 18.4028 2.4754C18.5313 2.56124 18.6314 2.68326 18.6905 2.82601C18.7497 2.96877 18.7651 3.12585 18.735 3.2774C18.7048 3.42894 18.6304 3.56815 18.5212 3.67741C18.4119 3.78667 18.2727 3.86108 18.1212 3.89122C17.9696 3.92137 17.8125 3.90589 17.6698 3.84676C17.527 3.78763 17.405 3.6875 17.3192 3.55902C17.2333 3.43055 17.1875 3.2795 17.1875 3.12498C17.1875 2.91778 17.2698 2.71907 17.4163 2.57256C17.5628 2.42604 17.7616 2.34373 17.9688 2.34373ZM21.8877 11.5019C21.7251 11.5983 21.6029 11.7504 21.5438 11.9299C21.4847 12.1095 21.4927 12.3044 21.5664 12.4785C21.7694 12.982 21.8741 13.5196 21.875 14.0625C21.875 15.6767 20.9385 17.2139 19.2383 18.3916C17.4482 19.6289 15.0557 20.3125 12.5 20.3125C9.94434 20.3125 7.55176 19.6289 5.76172 18.3916C4.06153 17.2139 3.125 15.6767 3.125 14.0625C3.12631 13.5214 3.23037 12.9856 3.43164 12.4834C3.50547 12.3095 3.5138 12.1148 3.45509 11.9352C3.39638 11.7557 3.2746 11.6035 3.11231 11.5068C2.91358 11.3883 2.74364 11.2272 2.61477 11.0351C2.4859 10.8429 2.40131 10.6245 2.36711 10.3957C2.33292 10.1669 2.34996 9.93331 2.41702 9.71187C2.48408 9.49044 2.59947 9.28666 2.75488 9.11525C2.91028 8.94384 3.10181 8.80909 3.31563 8.72071C3.52945 8.63234 3.76023 8.59255 3.99131 8.60423C4.22238 8.61591 4.44797 8.67875 4.6518 8.78823C4.85562 8.89771 5.03259 9.05109 5.16992 9.23729C5.28327 9.39299 5.45014 9.50134 5.63849 9.54153C5.82684 9.58172 6.0234 9.55093 6.19043 9.45506L6.22559 9.43358C7.9541 8.38865 10.1807 7.81248 12.5 7.81248C14.8174 7.81248 17.0439 8.38865 18.7725 9.43358L18.8135 9.45799C18.9803 9.55189 19.1757 9.58128 19.3628 9.5406C19.5498 9.49992 19.7154 9.39198 19.8281 9.23729C19.9646 9.04954 20.1412 8.89456 20.3451 8.78362C20.549 8.67267 20.7751 8.60856 21.0069 8.59593C21.2387 8.58329 21.4704 8.62246 21.6851 8.71059C21.8999 8.79871 22.0923 8.93358 22.2484 9.10538C22.4045 9.27718 22.5203 9.48161 22.5875 9.7038C22.6547 9.92599 22.6716 10.1604 22.6368 10.3899C22.6021 10.6194 22.5167 10.8383 22.3868 11.0306C22.2568 11.223 22.0857 11.384 21.8857 11.5019H21.8877ZM8.59375 14.0625C8.28472 14.0625 7.98263 13.9708 7.72567 13.7992C7.46872 13.6275 7.26845 13.3834 7.15019 13.0979C7.03193 12.8124 7.00099 12.4983 7.06127 12.1952C7.12156 11.8921 7.27038 11.6136 7.4889 11.3951C7.70742 11.1766 7.98583 11.0278 8.28892 10.9675C8.59202 10.9072 8.90618 10.9382 9.19169 11.0564C9.4772 11.1747 9.72123 11.375 9.89292 11.6319C10.0646 11.8889 10.1563 12.191 10.1563 12.5C10.1563 12.9144 9.99163 13.3118 9.69861 13.6048C9.40558 13.8979 9.00815 14.0625 8.59375 14.0625ZM17.9688 12.5C17.9688 12.809 17.8771 13.1111 17.7054 13.3681C17.5337 13.625 17.2897 13.8253 17.0042 13.9435C16.7187 14.0618 16.4045 14.0927 16.1014 14.0325C15.7983 13.9722 15.5199 13.8234 15.3014 13.6048C15.0829 13.3863 14.9341 13.1079 14.8738 12.8048C14.8135 12.5017 14.8444 12.1876 14.9627 11.902C15.081 11.6165 15.2812 11.3725 15.5382 11.2008C15.7951 11.0291 16.0972 10.9375 16.4063 10.9375C16.8207 10.9375 17.2181 11.1021 17.5111 11.3951C17.8041 11.6882 17.9688 12.0856 17.9688 12.5ZM16.3154 16.8213C16.3636 16.9119 16.3934 17.0112 16.4031 17.1134C16.4129 17.2155 16.4024 17.3186 16.3723 17.4168C16.3422 17.5149 16.293 17.6061 16.2276 17.6853C16.1622 17.7644 16.0819 17.8299 15.9912 17.8779C14.9162 18.4492 13.7174 18.748 12.5 18.748C11.2826 18.748 10.0838 18.4492 9.00879 17.8779C8.91812 17.8298 8.83781 17.7643 8.77245 17.6852C8.70709 17.6061 8.65795 17.5149 8.62784 17.4167C8.59774 17.3186 8.58725 17.2155 8.59699 17.1134C8.60672 17.0112 8.63648 16.9119 8.68457 16.8213C8.73266 16.7306 8.79814 16.6503 8.87727 16.5849C8.9564 16.5196 9.04763 16.4704 9.14574 16.4403C9.24386 16.4102 9.34695 16.3997 9.44912 16.4095C9.55129 16.4192 9.65054 16.449 9.74121 16.4971C10.5907 16.9487 11.538 17.1848 12.5 17.1848C13.462 17.1848 14.4093 16.9487 15.2588 16.4971C15.3495 16.4489 15.4487 16.4191 15.5509 16.4094C15.6531 16.3996 15.7562 16.4101 15.8543 16.4402C15.9524 16.4703 16.0437 16.5195 16.1228 16.5849C16.2019 16.6502 16.2674 16.7306 16.3154 16.8213Z" fill="#343330"/>
</svg>
