<svg width="25" height="25" viewBox="0 0 25 25" fill="none" xmlns="http://www.w3.org/2000/svg">
<path d="M17.1876 22.6563C17.1876 22.8635 17.1053 23.0622 16.9588 23.2087C16.8123 23.3552 16.6136 23.4376 16.4064 23.4376H8.59388C8.38668 23.4376 8.18796 23.3552 8.04145 23.2087C7.89494 23.0622 7.81263 22.8635 7.81263 22.6563C7.81263 22.4491 7.89494 22.2504 8.04145 22.1039C8.18796 21.9574 8.38668 21.8751 8.59388 21.8751H16.4064C16.6136 21.8751 16.8123 21.9574 16.9588 22.1039C17.1053 22.2504 17.1876 22.4491 17.1876 22.6563ZM21.0939 10.1563C21.0972 11.4587 20.803 12.7446 20.2337 13.916C19.6643 15.0873 18.8349 16.1131 17.8087 16.9151C17.6168 17.0622 17.4611 17.2512 17.3535 17.4677C17.2458 17.6841 17.1891 17.9224 17.1876 18.1641V18.7501C17.1876 19.1645 17.023 19.5619 16.73 19.8549C16.437 20.1479 16.0395 20.3126 15.6251 20.3126H9.37513C8.96073 20.3126 8.5633 20.1479 8.27027 19.8549C7.97725 19.5619 7.81263 19.1645 7.81263 18.7501V18.1641C7.81247 17.9252 7.75754 17.6896 7.65207 17.4753C7.5466 17.2609 7.3934 17.0736 7.20423 16.9278C6.1806 16.1306 5.35174 15.1109 4.78038 13.9461C4.20902 12.7812 3.91015 11.5016 3.90638 10.2042C3.88099 5.54986 7.64271 1.67388 12.2931 1.56255C13.4389 1.53494 14.5787 1.73682 15.6454 2.15632C16.7121 2.57582 17.684 3.20445 18.5041 4.00522C19.3241 4.80599 19.9757 5.76272 20.4205 6.81908C20.8653 7.87545 21.0942 9.01012 21.0939 10.1563ZM19.5314 10.1563C19.5317 9.21847 19.3443 8.29006 18.9804 7.42572C18.6164 6.56139 18.0833 5.77859 17.4123 5.1234C16.7412 4.46822 15.9459 3.9539 15.0732 3.6107C14.2004 3.26751 13.2678 3.10239 12.3302 3.12505C8.52161 3.2149 5.44837 6.3858 5.46888 10.1944C5.47245 11.2555 5.71731 12.3019 6.18495 13.2544C6.65258 14.207 7.33073 15.0407 8.1681 15.6924C8.54451 15.9851 8.84897 16.3599 9.05819 16.7883C9.2674 17.2167 9.37581 17.6873 9.37513 18.1641V18.7501H15.6251V18.1641C15.6262 17.686 15.7365 17.2144 15.9475 16.7854C16.1586 16.3564 16.4648 15.9812 16.8429 15.6885C17.6828 15.0321 18.3617 14.1925 18.8276 13.2337C19.2936 12.2749 19.5343 11.2223 19.5314 10.1563ZM17.9581 9.24419C17.7556 8.11265 17.2112 7.07033 16.3982 6.25757C15.5853 5.44481 14.5429 4.90063 13.4113 4.6983C13.3101 4.68124 13.2065 4.68428 13.1065 4.70724C13.0065 4.73021 12.912 4.77264 12.8284 4.83213C12.7448 4.89162 12.6737 4.96699 12.6192 5.05395C12.5647 5.1409 12.5279 5.23774 12.5109 5.33892C12.4938 5.4401 12.4969 5.54366 12.5198 5.64367C12.5428 5.74368 12.5852 5.83818 12.6447 5.92179C12.7042 6.0054 12.7796 6.07648 12.8665 6.13096C12.9535 6.18544 13.0503 6.22225 13.1515 6.23931C14.7697 6.51177 16.1427 7.88482 16.4171 9.50591C16.448 9.68787 16.5424 9.853 16.6834 9.97205C16.8244 10.0911 17.0031 10.1564 17.1876 10.1563C17.2318 10.156 17.2759 10.1524 17.3195 10.1456C17.5237 10.1107 17.7057 9.99616 17.8254 9.82712C17.9452 9.65809 17.9929 9.44841 17.9581 9.24419Z" fill="#343330"/>
</svg>
