<svg width="32" height="32" viewBox="0 0 32 32" fill="none" xmlns="http://www.w3.org/2000/svg">
<path d="M21.5 20.5C21.5 20.8978 21.342 21.2794 21.0607 21.5607C20.7794 21.842 20.3978 22 20 22H12C11.6022 22 11.2206 21.842 10.9393 21.5607C10.658 21.2794 10.5 20.8978 10.5 20.5C10.5 20.1022 10.658 19.7206 10.9393 19.4393C11.2206 19.158 11.6022 19 12 19H20C20.3978 19 20.7794 19.158 21.0607 19.4393C21.342 19.7206 21.5 20.1022 21.5 20.5ZM20 14H12C11.6022 14 11.2206 14.158 10.9393 14.4393C10.658 14.7206 10.5 15.1022 10.5 15.5C10.5 15.8978 10.658 16.2794 10.9393 16.5607C11.2206 16.842 11.6022 17 12 17H20C20.3978 17 20.7794 16.842 21.0607 16.5607C21.342 16.2794 21.5 15.8978 21.5 15.5C21.5 15.1022 21.342 14.7206 21.0607 14.4393C20.7794 14.158 20.3978 14 20 14ZM27.5 6V27C27.5 27.663 27.2366 28.2989 26.7678 28.7678C26.2989 29.2366 25.663 29.5 25 29.5H7C6.33696 29.5 5.70107 29.2366 5.23223 28.7678C4.76339 28.2989 4.5 27.663 4.5 27V6C4.5 5.33696 4.76339 4.70107 5.23223 4.23223C5.70107 3.76339 6.33696 3.5 7 3.5H11.3162C11.9216 2.86786 12.6487 2.36479 13.4536 2.02112C14.2586 1.67745 15.1248 1.50027 16 1.50027C16.8752 1.50027 17.7414 1.67745 18.5464 2.02112C19.3513 2.36479 20.0784 2.86786 20.6838 3.5H25C25.663 3.5 26.2989 3.76339 26.7678 4.23223C27.2366 4.70107 27.5 5.33696 27.5 6ZM12.5363 7.5H19.4638C19.343 6.6675 18.9264 5.90635 18.2904 5.35587C17.6543 4.8054 16.8412 4.50243 16 4.50243C15.1588 4.50243 14.3457 4.8054 13.7096 5.35587C13.0736 5.90635 12.657 6.6675 12.5363 7.5ZM24.5 6.5H22.3237C22.4404 6.99148 22.4996 7.49486 22.5 8V9C22.5 9.39782 22.342 9.77935 22.0607 10.0607C21.7794 10.342 21.3978 10.5 21 10.5H11C10.6022 10.5 10.2206 10.342 9.93934 10.0607C9.65804 9.77935 9.5 9.39782 9.5 9V8C9.50041 7.49486 9.55956 6.99148 9.67625 6.5H7.5V26.5H24.5V6.5Z" fill="#343330"/>
</svg>
