<svg width="25" height="25" viewBox="0 0 25 25" fill="none" xmlns="http://www.w3.org/2000/svg">
<path d="M23.9063 14.6874C23.8242 14.7489 23.7308 14.7937 23.6314 14.8192C23.5321 14.8447 23.4286 14.8503 23.3271 14.8358C23.2255 14.8213 23.1278 14.7869 23.0395 14.7346C22.9512 14.6824 22.8741 14.6132 22.8126 14.5311C22.3417 13.8982 21.7287 13.3846 21.0231 13.0318C20.3175 12.679 19.5389 12.4968 18.7501 12.4999C18.5964 12.4999 18.4462 12.4546 18.3182 12.3696C18.1902 12.2847 18.09 12.1639 18.0303 12.0224C17.9898 11.9262 17.9689 11.823 17.9689 11.7186C17.9689 11.6143 17.9898 11.511 18.0303 11.4149C18.09 11.2734 18.1902 11.1526 18.3182 11.0677C18.4462 10.9827 18.5964 10.9374 18.7501 10.9374C19.1884 10.9374 19.618 10.8144 19.9899 10.5824C20.3619 10.3505 20.6614 10.0189 20.8543 9.62532C21.0473 9.23172 21.126 8.7919 21.0815 8.35581C21.037 7.91972 20.8711 7.50485 20.6027 7.15831C20.3342 6.81177 19.974 6.54747 19.5628 6.39541C19.1517 6.24336 18.7062 6.20965 18.2768 6.29812C17.8475 6.38658 17.4516 6.59368 17.1341 6.89588C16.8165 7.19808 16.5901 7.58327 16.4805 8.0077C16.4549 8.10709 16.4099 8.20045 16.3482 8.28246C16.2864 8.36447 16.2092 8.43352 16.1207 8.48566C16.0323 8.5378 15.9345 8.57202 15.8329 8.58636C15.7312 8.6007 15.6278 8.59487 15.5284 8.56923C15.429 8.54358 15.3356 8.4986 15.2536 8.43687C15.1716 8.37514 15.1026 8.29786 15.0504 8.20945C14.9983 8.12103 14.9641 8.02321 14.9497 7.92157C14.9354 7.81993 14.9412 7.71647 14.9668 7.61708C15.119 7.02852 15.4063 6.48358 15.8061 6.02562C16.2059 5.56767 16.707 5.20934 17.2696 4.97914C17.8323 4.74894 18.4408 4.65323 19.047 4.69963C19.6531 4.74602 20.24 4.93324 20.7611 5.24639C21.2821 5.55953 21.7229 5.98996 22.0483 6.50342C22.3737 7.01689 22.5748 7.59921 22.6355 8.20407C22.6963 8.80892 22.615 9.41961 22.3983 9.98753C22.1815 10.5555 21.8351 11.065 21.3868 11.4755C22.4491 11.9354 23.3726 12.6653 24.0655 13.5927C24.127 13.6749 24.1718 13.7686 24.1971 13.8682C24.2224 13.9678 24.2278 14.0714 24.213 14.1731C24.1982 14.2747 24.1635 14.3725 24.1109 14.4608C24.0583 14.549 23.9887 14.626 23.9063 14.6874ZM18.6446 20.703C18.7011 20.7919 18.7391 20.8914 18.7562 20.9953C18.7733 21.0993 18.7692 21.2057 18.7441 21.308C18.719 21.4103 18.6735 21.5066 18.6103 21.5909C18.5471 21.6751 18.4675 21.7458 18.3762 21.7985C18.285 21.8512 18.1841 21.885 18.0795 21.8977C17.9749 21.9104 17.8688 21.9018 17.7676 21.8724C17.6664 21.8431 17.5722 21.7936 17.4906 21.7269C17.4091 21.6601 17.3419 21.5776 17.293 21.4843C16.8009 20.6509 16.1 19.9603 15.2595 19.4806C14.4189 19.0008 13.4679 18.7485 12.5001 18.7485C11.5322 18.7485 10.5812 19.0008 9.74065 19.4806C8.90014 19.9603 8.19923 20.6509 7.70708 21.4843C7.65824 21.5776 7.59102 21.6601 7.50947 21.7269C7.42791 21.7936 7.3337 21.8431 7.2325 21.8724C7.13131 21.9018 7.02522 21.9104 6.92062 21.8977C6.81603 21.885 6.71508 21.8512 6.62386 21.7985C6.53264 21.7458 6.45302 21.6751 6.38981 21.5909C6.32659 21.5066 6.28108 21.4103 6.25601 21.308C6.23094 21.2057 6.22684 21.0993 6.24394 20.9953C6.26104 20.8914 6.29899 20.7919 6.35552 20.703C7.11294 19.4016 8.26782 18.3775 9.65044 17.7811C8.87244 17.1855 8.30067 16.361 8.01548 15.4236C7.7303 14.4861 7.74605 13.4829 8.06052 12.5549C8.37498 11.6269 8.97236 10.8207 9.76867 10.2498C10.565 9.67882 11.5202 9.37176 12.5001 9.37176C13.4799 9.37176 14.4351 9.67882 15.2314 10.2498C16.0277 10.8207 16.6251 11.6269 16.9396 12.5549C17.2541 13.4829 17.2698 14.4861 16.9846 15.4236C16.6994 16.361 16.1277 17.1855 15.3497 17.7811C16.7323 18.3775 17.8872 19.4016 18.6446 20.703ZM12.5001 17.1874C13.1181 17.1874 13.7223 17.0041 14.2362 16.6607C14.7501 16.3174 15.1507 15.8293 15.3872 15.2583C15.6237 14.6873 15.6856 14.0589 15.565 13.4527C15.4444 12.8465 15.1468 12.2897 14.7098 11.8527C14.2727 11.4156 13.7159 11.118 13.1097 10.9974C12.5035 10.8769 11.8752 10.9387 11.3042 11.1753C10.7331 11.4118 10.2451 11.8123 9.90171 12.3262C9.55833 12.8401 9.37505 13.4443 9.37505 14.0624C9.37505 14.8912 9.70429 15.686 10.2903 16.2721C10.8764 16.8581 11.6713 17.1874 12.5001 17.1874ZM7.0313 11.7186C7.0313 11.5114 6.94899 11.3127 6.80248 11.1662C6.65597 11.0197 6.45725 10.9374 6.25005 10.9374C5.8117 10.9374 5.38214 10.8144 5.01018 10.5824C4.63821 10.3505 4.33874 10.0189 4.14579 9.62532C3.95283 9.23172 3.87412 8.7919 3.91861 8.35581C3.96309 7.91972 4.12897 7.50485 4.39742 7.15831C4.66587 6.81177 5.02612 6.54747 5.43726 6.39541C5.84839 6.24336 6.29393 6.20965 6.72326 6.29812C7.15259 6.38658 7.54851 6.59368 7.86604 6.89588C8.18358 7.19808 8.41 7.58327 8.51958 8.0077C8.57138 8.20843 8.7008 8.38035 8.87936 8.48566C9.05792 8.59097 9.27101 8.62103 9.47173 8.56923C9.67246 8.51742 9.84438 8.38801 9.94969 8.20945C10.055 8.03088 10.0851 7.8178 10.0333 7.61708C9.88115 7.02852 9.59378 6.48358 9.19401 6.02562C8.79424 5.56767 8.2931 5.20934 7.73048 4.97914C7.16785 4.74894 6.55926 4.65323 5.95314 4.69963C5.34701 4.74602 4.76008 4.93324 4.23904 5.24639C3.71801 5.55953 3.27724 5.98996 2.95183 6.50342C2.62642 7.01689 2.42533 7.59921 2.36457 8.20407C2.30382 8.80892 2.38506 9.41961 2.60185 9.98753C2.81864 10.5555 3.16499 11.065 3.61333 11.4755C2.55209 11.9359 1.62966 12.6657 0.937552 13.5927C0.813102 13.7584 0.759598 13.9668 0.788809 14.172C0.81802 14.3773 0.927554 14.5625 1.09331 14.6869C1.25907 14.8114 1.46748 14.8649 1.67269 14.8356C1.8779 14.8064 2.0631 14.6969 2.18755 14.5311C2.65844 13.8982 3.27135 13.3846 3.97696 13.0318C4.68257 12.679 5.46116 12.4968 6.25005 12.4999C6.45725 12.4999 6.65597 12.4176 6.80248 12.2711C6.94899 12.1246 7.0313 11.9258 7.0313 11.7186Z" fill="#343330"/>
</svg>
