<svg width="25" height="25" viewBox="0 0 25 25" fill="none" xmlns="http://www.w3.org/2000/svg">
<path d="M21.875 10.1562C21.875 10.3635 21.7927 10.5622 21.6462 10.7087C21.4997 10.8552 21.301 10.9375 21.0938 10.9375C20.8865 10.9375 20.6878 10.8552 20.5413 10.7087C20.3948 10.5622 20.3125 10.3635 20.3125 10.1562V5.79297L13.835 12.2715C13.6884 12.4181 13.4895 12.5004 13.2822 12.5004C13.0749 12.5004 12.8761 12.4181 12.7295 12.2715C12.5829 12.1249 12.5005 11.9261 12.5005 11.7188C12.5005 11.5114 12.5829 11.3126 12.7295 11.166L19.207 4.6875H14.8438C14.6365 4.6875 14.4378 4.60519 14.2913 4.45868C14.1448 4.31216 14.0625 4.11345 14.0625 3.90625C14.0625 3.69905 14.1448 3.50034 14.2913 3.35382C14.4378 3.20731 14.6365 3.125 14.8438 3.125H21.0938C21.301 3.125 21.4997 3.20731 21.6462 3.35382C21.7927 3.50034 21.875 3.69905 21.875 3.90625V10.1562ZM17.9688 12.5C17.7615 12.5 17.5628 12.5823 17.4163 12.7288C17.2698 12.8753 17.1875 13.074 17.1875 13.2812V20.3125H4.6875V7.8125H11.7188C11.926 7.8125 12.1247 7.73019 12.2712 7.58368C12.4177 7.43716 12.5 7.23845 12.5 7.03125C12.5 6.82405 12.4177 6.62534 12.2712 6.47882C12.1247 6.33231 11.926 6.25 11.7188 6.25H4.6875C4.2731 6.25 3.87567 6.41462 3.58265 6.70765C3.28962 7.00067 3.125 7.3981 3.125 7.8125V20.3125C3.125 20.7269 3.28962 21.1243 3.58265 21.4174C3.87567 21.7104 4.2731 21.875 4.6875 21.875H17.1875C17.6019 21.875 17.9993 21.7104 18.2924 21.4174C18.5854 21.1243 18.75 20.7269 18.75 20.3125V13.2812C18.75 13.074 18.6677 12.8753 18.5212 12.7288C18.3747 12.5823 18.176 12.5 17.9688 12.5Z" fill="#343330"/>
</svg>
