<svg width="25" height="25" viewBox="0 0 25 25" fill="none" xmlns="http://www.w3.org/2000/svg">
<path d="M22.4277 5.69727L19.3027 2.57227C19.2302 2.49963 19.144 2.44201 19.0492 2.40269C18.9543 2.36338 18.8527 2.34314 18.75 2.34314C18.6473 2.34314 18.5457 2.36338 18.4508 2.40269C18.356 2.44201 18.2698 2.49963 18.1973 2.57227L8.82227 11.9473C8.74974 12.0199 8.69223 12.1061 8.65302 12.2009C8.61381 12.2957 8.59367 12.3974 8.59375 12.5V15.625C8.59375 15.8322 8.67606 16.0309 8.82257 16.1774C8.96909 16.3239 9.1678 16.4063 9.375 16.4063H12.5C12.6026 16.4063 12.7043 16.3862 12.7991 16.347C12.8939 16.3078 12.9801 16.2503 13.0527 16.1777L22.4277 6.80274C22.5004 6.73018 22.558 6.64402 22.5973 6.54918C22.6366 6.45433 22.6569 6.35267 22.6569 6.25C22.6569 6.14734 22.6366 6.04567 22.5973 5.95083C22.558 5.85599 22.5004 5.76983 22.4277 5.69727ZM12.1768 14.8438H10.1562V12.8232L16.4062 6.57325L18.4268 8.59375L12.1768 14.8438ZM19.5312 7.48926L17.5107 5.46875L18.75 4.2295L20.7705 6.25L19.5312 7.48926ZM21.875 12.5V20.3125C21.875 20.7269 21.7104 21.1243 21.4174 21.4174C21.1243 21.7104 20.7269 21.875 20.3125 21.875H4.6875C4.2731 21.875 3.87567 21.7104 3.58265 21.4174C3.28962 21.1243 3.125 20.7269 3.125 20.3125V4.6875C3.125 4.2731 3.28962 3.87568 3.58265 3.58265C3.87567 3.28962 4.2731 3.125 4.6875 3.125H12.5C12.7072 3.125 12.9059 3.20731 13.0524 3.35383C13.1989 3.50034 13.2812 3.69905 13.2812 3.90625C13.2812 4.11345 13.1989 4.31217 13.0524 4.45868C12.9059 4.60519 12.7072 4.6875 12.5 4.6875H4.6875V20.3125H20.3125V12.5C20.3125 12.2928 20.3948 12.0941 20.5413 11.9476C20.6878 11.8011 20.8865 11.7188 21.0938 11.7188C21.301 11.7188 21.4997 11.8011 21.6462 11.9476C21.7927 12.0941 21.875 12.2928 21.875 12.5Z" fill="#343330"/>
</svg>
