<svg width="25" height="25" viewBox="0 0 25 25" fill="none" xmlns="http://www.w3.org/2000/svg">
<path d="M12.5 2.34375C10.4913 2.34375 8.52768 2.9394 6.85749 4.05539C5.18731 5.17137 3.88556 6.75756 3.11685 8.61337C2.34815 10.4692 2.14702 12.5113 2.5389 14.4814C2.93079 16.4515 3.89807 18.2612 5.31845 19.6816C6.73883 21.1019 8.5485 22.0692 10.5186 22.4611C12.4887 22.853 14.5308 22.6519 16.3866 21.8832C18.2424 21.1144 19.8286 19.8127 20.9446 18.1425C22.0606 16.4723 22.6563 14.5087 22.6563 12.5C22.6534 9.80727 21.5825 7.22564 19.6784 5.32159C17.7744 3.41754 15.1927 2.34659 12.5 2.34375ZM12.5 3.90625C14.165 3.90448 15.7942 4.38918 17.1875 5.30078V7.22656L15.0225 9.74023L11.9492 10.1562L11.919 10.1348L9.99805 8.87891C9.82775 8.75894 9.63517 8.67424 9.43165 8.62979C9.22813 8.58534 9.01778 8.58203 8.81296 8.62006C8.60815 8.6581 8.41301 8.7367 8.23901 8.85126C8.06502 8.96581 7.91569 9.114 7.79981 9.28711L5.75489 12.3438C5.58453 12.5985 5.49284 12.8977 5.49122 13.2041L5.46875 16.7422L5.14942 16.9521C4.35998 15.6488 3.9313 14.1589 3.90731 12.6353C3.88332 11.1117 4.26488 9.60906 5.0129 8.28147C5.76091 6.95388 6.84848 5.84906 8.16413 5.08024C9.47977 4.31142 10.9762 3.90625 12.5 3.90625ZM6.08301 18.21L6.32911 18.0488C6.544 17.9071 6.72054 17.7144 6.84304 17.488C6.96554 17.2616 7.03019 17.0084 7.03125 16.751L7.05176 13.2129L9.09864 10.1562C9.10866 10.164 9.11909 10.1711 9.12989 10.1777L11.0508 11.4346C11.3727 11.6618 11.7688 11.7584 12.1592 11.7051L15.2344 11.2881C15.6136 11.2375 15.9611 11.0495 16.2109 10.7598L18.376 8.24414C18.6181 7.96046 18.7508 7.59952 18.75 7.22656V6.6084C19.8067 7.72636 20.5434 9.10783 20.8831 10.6082C21.2228 12.1086 21.1528 13.6726 20.6807 15.1367L19.1045 13.6953C18.8854 13.4942 18.6134 13.3598 18.3205 13.3079C18.0277 13.256 17.7261 13.2888 17.4512 13.4023L14.4766 14.6377C14.2278 14.7421 14.0102 14.9088 13.8446 15.1218C13.6791 15.3347 13.5711 15.5867 13.5313 15.8535L13.2979 17.4346C13.2418 17.8151 13.328 18.203 13.5401 18.5239C13.7522 18.8448 14.0752 19.0762 14.4473 19.1738L16.543 19.7266L16.7734 19.958C15.0621 20.9399 13.0647 21.3021 11.1176 20.9838C9.17044 20.6654 7.39246 19.6858 6.08301 18.21ZM18.0664 19.043L17.6465 18.6221C17.4506 18.4255 17.2059 18.2846 16.9375 18.2139L14.8438 17.6611L15.0772 16.0801L18.0508 14.8438L20.0195 16.6484C19.5178 17.5575 18.8561 18.3687 18.0664 19.043Z" fill="#343330"/>
</svg>
