<svg width="25" height="25" viewBox="0 0 25 25" fill="none" xmlns="http://www.w3.org/2000/svg">
<path d="M24.9434 11.4258L23.5762 8.00781C23.4602 7.71862 23.26 7.47093 23.0016 7.29681C22.7433 7.12269 22.4385 7.03018 22.127 7.03125H18.75V6.25C18.75 6.0428 18.6677 5.84409 18.5212 5.69757C18.3747 5.55106 18.176 5.46875 17.9688 5.46875H3.125C2.7106 5.46875 2.31317 5.63337 2.02015 5.9264C1.72712 6.21942 1.5625 6.61685 1.5625 7.03125V17.9687C1.5625 18.3831 1.72712 18.7806 2.02015 19.0736C2.31317 19.3666 2.7106 19.5312 3.125 19.5312H4.78516C4.95727 20.2034 5.3482 20.7992 5.89634 21.2247C6.44447 21.6502 7.11862 21.8811 7.8125 21.8811C8.50638 21.8811 9.18053 21.6502 9.72866 21.2247C10.2768 20.7992 10.6677 20.2034 10.8398 19.5312H15.7227C15.8948 20.2034 16.2857 20.7992 16.8338 21.2247C17.382 21.6502 18.0561 21.8811 18.75 21.8811C19.4439 21.8811 20.118 21.6502 20.6662 21.2247C21.2143 20.7992 21.6052 20.2034 21.7773 19.5312H23.4375C23.8519 19.5312 24.2493 19.3666 24.5424 19.0736C24.8354 18.7806 25 18.3831 25 17.9687V11.7187C25.0003 11.6183 24.981 11.5188 24.9434 11.4258ZM18.75 8.59375H22.127L23.0645 10.9375H18.75V8.59375ZM3.125 7.03125H17.1875V13.2812H3.125V7.03125ZM7.8125 20.3125C7.50347 20.3125 7.20137 20.2209 6.94442 20.0492C6.68747 19.8775 6.4872 19.6335 6.36894 19.3479C6.25068 19.0624 6.21973 18.7483 6.28002 18.4452C6.34031 18.1421 6.48913 17.8637 6.70765 17.6451C6.92617 17.4266 7.20458 17.2778 7.50767 17.2175C7.81077 17.1572 8.12493 17.1882 8.41044 17.3064C8.69595 17.4247 8.93998 17.625 9.11167 17.8819C9.28336 18.1389 9.375 18.441 9.375 18.75C9.375 19.1644 9.21038 19.5618 8.91735 19.8549C8.62433 20.1479 8.2269 20.3125 7.8125 20.3125ZM15.7227 17.9687H10.8398C10.6677 17.2965 10.2768 16.7008 9.72866 16.2753C9.18053 15.8498 8.50638 15.6189 7.8125 15.6189C7.11862 15.6189 6.44447 15.8498 5.89634 16.2753C5.3482 16.7008 4.95727 17.2965 4.78516 17.9687H3.125V14.8437H17.1875V16.0459C16.8283 16.2535 16.5138 16.5304 16.2623 16.8605C16.0109 17.1906 15.8275 17.5673 15.7227 17.9687ZM18.75 20.3125C18.441 20.3125 18.1389 20.2209 17.8819 20.0492C17.625 19.8775 17.4247 19.6335 17.3064 19.3479C17.1882 19.0624 17.1572 18.7483 17.2175 18.4452C17.2778 18.1421 17.4266 17.8637 17.6451 17.6451C17.8637 17.4266 18.1421 17.2778 18.4452 17.2175C18.7483 17.1572 19.0624 17.1882 19.3479 17.3064C19.6335 17.4247 19.8775 17.625 20.0492 17.8819C20.2209 18.1389 20.3125 18.441 20.3125 18.75C20.3125 19.1644 20.1479 19.5618 19.8549 19.8549C19.5618 20.1479 19.1644 20.3125 18.75 20.3125ZM23.4375 17.9687H21.7773C21.6032 17.2982 21.2115 16.7043 20.6637 16.2802C20.1158 15.8561 19.4428 15.6257 18.75 15.625V12.5H23.4375V17.9687Z" fill="#343330"/>
</svg>
